<svg width="373" height="64" viewBox="0 0 373 64" fill="none" xmlns="http://www.w3.org/2000/svg">
<g clip-path="url(#clip0_2248_5700)">
<rect width="64" height="64" rx="8.33333" fill="#222222"/>
<path d="M47.635 19.2063H41.4222V47.473H47.635V19.2063Z" fill="white"/>
<path d="M16.3434 20.7499V47.4665H26.192C20.1997 43.2637 17.3264 29.0862 16.3434 20.7499Z" fill="white"/>
<path d="M31.4979 31.3295L21.4539 15.123L16.7281 19.2251L30.433 43.4402L39.0781 30.7624L35.9275 33.3711C34.6673 34.3099 33.0416 33.8562 31.4979 31.3295Z" fill="white"/>
</g>
<g clip-path="url(#clip1_2248_5700)">
<path d="M122.382 25.7641C120.897 25.8208 119.424 26.0623 117.998 26.4832V16.0278H111.882V50.326H117.998V30.4109C118.264 29.6323 118.759 28.9543 119.417 28.4679C120.075 27.9814 120.865 27.7097 121.68 27.6892C124.201 27.6892 126.064 29.736 126.064 32.9556V50.326H132.18V35.8433C132.048 29.5258 128.541 25.7641 122.382 25.7641Z" fill="#222222"/>
<path d="M226.994 25.7661C224.102 25.6515 221.263 26.5719 218.978 28.365C216.693 30.1581 215.109 32.7085 214.506 35.566C213.903 38.4234 214.32 41.404 215.682 43.9816C217.044 46.5592 219.265 48.5679 221.952 49.6531C227.224 51.4676 232.441 50.5161 236.266 46.7433L235.17 45.5595C232.43 48.4693 229.284 49.2659 227.027 48.8787C223.552 48.2812 221.174 44.4531 221.317 38.9765L239.663 38.8879V36.3432C239.63 27.4368 231.038 25.7661 226.994 25.7661ZM221.317 36.7526C221.317 31.0326 223.969 27.4368 227.432 27.4368C229.723 27.4368 233.328 29.3066 233.328 36.7969L221.317 36.7526Z" fill="#222222"/>
<path d="M267.676 25.7648C264.883 25.6644 262.133 26.4923 259.851 28.1214C258.286 26.5912 256.188 25.7445 254.009 25.7648C252.85 25.7346 251.694 25.9029 250.59 26.2626C250.105 26.373 249.634 26.5401 249.187 26.7605V25.8533H243.071V50.3488H249.187V32.5248C249.187 29.3052 251.127 27.4354 253.33 27.4354C255.533 27.4354 257.418 29.3052 257.418 32.5248V50.393H263.544V35.3461C263.599 33.8253 263.414 32.3054 262.996 30.8431C263.764 28.7078 265.254 27.4354 267.052 27.4354C269.342 27.4354 271.14 29.3052 271.14 32.5248V50.393H277.211V36.0653C277.124 29.4822 274.197 25.7648 267.676 25.7648Z" fill="#222222"/>
<path d="M346.784 25.7635C344.917 25.8408 343.129 26.5412 341.699 27.755V25.852H335.583V50.3476H341.699V33.7517C341.818 32.2568 342.458 30.8529 343.505 29.7894C344.553 28.726 345.94 28.0718 347.42 27.9431C349.425 27.9431 350.28 28.5295 352.231 30.2998L353.174 29.2597C352.468 28.1987 351.518 27.3263 350.405 26.7174C349.292 26.1085 348.05 25.7811 346.784 25.7635Z" fill="#222222"/>
<path d="M371.071 39.4728C367.925 36.6625 359.64 36.2974 359.64 31.5289C359.671 30.4805 360.082 29.4801 360.795 28.7173C361.508 27.9546 362.474 27.4826 363.509 27.391C367.794 26.9927 370.808 29.6037 371.4 32.7791H372.287C372.34 31.8749 372.277 30.9676 372.101 30.0795C371.213 25.842 364.429 25.8088 362.566 25.8088C358.292 25.8088 353.261 27.6675 353.261 32.5246C353.261 38.654 362.654 39.34 365.854 42.5596C368.78 45.4251 365.185 48.8328 362.204 48.9213C359.314 48.788 356.568 47.61 354.467 45.6022L353.371 46.786C357.459 52.1852 373.022 52.5946 373.022 43.7877C373.021 42.9696 372.846 42.1612 372.509 41.4169C372.173 40.6727 371.682 40.0098 371.071 39.4728Z" fill="#222222"/>
<path d="M148.356 25.7661C145.465 25.6515 142.626 26.5719 140.341 28.365C138.056 30.1581 136.472 32.7085 135.869 35.566C135.266 38.4234 135.682 41.404 137.045 43.9816C138.407 46.5592 140.628 48.5679 143.315 49.6531C148.587 51.4676 153.804 50.5161 157.629 46.7433L156.533 45.5595C153.793 48.4693 150.647 49.2659 148.389 48.8787C144.915 48.2812 142.537 44.4531 142.679 38.9765L161.037 38.9322V36.3875C161.037 27.4368 152.401 25.7661 148.356 25.7661ZM142.646 36.7084C142.646 30.9883 145.299 27.3925 148.762 27.3925C151.053 27.3925 154.658 29.2623 154.658 36.7526L142.646 36.7084Z" fill="#222222"/>
<path d="M210.817 17.2458H203.605V50.3933H210.817V17.2458Z" fill="#222222"/>
<path d="M174.485 19.1252V50.4472H185.916C178.957 45.4684 175.625 28.8394 174.485 19.1252Z" fill="#222222"/>
<path d="M192.075 31.4725L180.414 12.4868L174.934 17.2996L190.848 45.6785L200.887 30.8086L197.204 33.8623C195.769 34.9908 193.917 34.4376 192.075 31.4725Z" fill="#222222"/>
<path d="M80 19.525L91.3105 19.4808V50.3933H98.829V19.4586L110.14 19.4254V17.2901L80 17.2458V19.525Z" fill="#222222"/>
<path d="M293.355 25.7651C291.387 25.788 289.474 26.4215 287.875 27.5796V16.0731H281.759V50.3712H287.875V30.4562C288.237 29.8742 288.742 29.397 289.341 29.0713C289.941 28.7455 290.614 28.5822 291.294 28.5975C296.467 28.5975 297.804 34.4171 297.684 38.7652C297.563 43.1133 295.634 49.1542 291.371 50.7142C298.473 50.7142 303.558 44.7729 304.249 38.7652C305.169 30.6 300.413 25.7651 293.355 25.7651Z" fill="#222222"/>
<path d="M319.549 25.7651C316.632 25.6101 313.757 26.5097 311.439 28.3024C309.121 30.095 307.511 32.6632 306.9 35.5458C306.289 38.4284 306.716 41.4366 308.104 44.0301C309.492 46.6236 311.751 48.6326 314.474 49.6963C319.735 51.5108 324.952 50.5593 328.722 46.7865L327.626 45.6026C324.886 48.5125 321.752 49.3091 319.483 48.9218C316.02 48.3244 313.63 44.4963 313.773 39.0196L332.13 38.9311V36.3864C332.196 27.4357 323.604 25.7651 319.549 25.7651ZM313.839 36.7073C313.839 30.9872 316.491 27.3915 319.954 27.3915C322.245 27.3915 325.85 29.2613 325.85 36.7515L313.839 36.7073Z" fill="#222222"/>
</g>
<defs>
<clipPath id="clip0_2248_5700">
<rect width="64" height="64" fill="white"/>
</clipPath>
<clipPath id="clip1_2248_5700">
<rect width="293" height="39.0667" fill="white" transform="translate(80 12.4667)"/>
</clipPath>
</defs>
</svg>
